<svg width="18" height="18" viewBox="0 0 18 18" fill="none" xmlns="http://www.w3.org/2000/svg">
<g clip-path="url(#clip0)">
<path d="M16.1494 3.54368L16.9353 3.54424L16.9361 2.48973L14.5226 2.48797L14.2112 4.91955L15.2574 5.05346L15.3605 4.24849C16.3876 5.61537 16.9441 7.26912 16.9454 9.00791C16.9469 11.1297 16.122 13.1239 14.6226 14.623C13.1246 16.1208 11.1325 16.9455 9.01259 16.9454H9.00661C6.88419 16.9439 4.8882 16.116 3.38625 14.6143C1.88427 13.1126 1.05624 11.1169 1.05469 8.9948C1.05314 6.87298 1.87805 4.87881 3.37743 3.37967C5.62697 1.13052 8.99153 0.442545 11.949 1.62699L12.3412 0.648104C8.99121 -0.693599 5.1801 0.0859205 2.63169 2.63401C0.932838 4.33255 -0.00175534 6.5918 2.4751e-06 8.99557C0.00176029 11.3991 0.939483 13.6593 2.64041 15.36C4.34134 17.0607 6.60196 17.9982 9.0058 18H9.01255C11.4141 17.9999 13.6712 17.0656 15.3683 15.3687C17.0672 13.6702 18.0018 11.4109 18 9.00717C17.9986 7.00664 17.3481 5.10567 16.1494 3.54368Z" fill="#7D7A7A"/>
<path d="M9 3.51758C5.97586 3.51758 3.51562 5.97746 3.51562 9.00125C3.51562 12.025 5.97586 14.4849 9 14.4849C12.0241 14.4849 14.4844 12.025 14.4844 9.00125C14.4844 5.97746 12.0241 3.51758 9 3.51758ZM11.2605 9.52859H8.47266V6.74105H9.52734V8.47391H11.2605V9.52859Z" fill="#7D7A7A"/>
</g>
<defs>
<clipPath id="clip0">
<rect width="18" height="18" fill="white"/>
</clipPath>
</defs>
</svg>
