<svg width="16" height="16" viewBox="0 0 16 16" fill="none" xmlns="http://www.w3.org/2000/svg">
<path d="M11.2004 0H4.80214C2.15618 0 0.00341797 2.15276 0.00341797 4.79872V8.53106C0.00341797 11.0877 2.01302 13.1837 4.53554 13.3226V15.5471C4.53554 15.7969 4.73922 16 4.98956 16C5.10926 16 5.22256 15.9525 5.30814 15.867L5.80827 15.3668C7.12152 14.0533 8.86799 13.3298 10.7256 13.3298H11.2004C13.8464 13.3298 15.9992 11.177 15.9992 8.53106V4.79872C15.9992 2.15276 13.8464 0 11.2004 0ZM4.53554 7.73127C3.94743 7.73127 3.46916 7.253 3.46916 6.66489C3.46916 6.07678 3.94743 5.59851 4.53554 5.59851C5.12365 5.59851 5.60193 6.07678 5.60193 6.66489C5.60193 7.253 5.12339 7.73127 4.53554 7.73127ZM8.00129 7.73127C7.41318 7.73127 6.9349 7.253 6.9349 6.66489C6.9349 6.07678 7.41318 5.59851 8.00129 5.59851C8.5894 5.59851 9.06767 6.07678 9.06767 6.66489C9.06767 7.253 8.58913 7.73127 8.00129 7.73127ZM11.467 7.73127C10.8789 7.73127 10.4006 7.253 10.4006 6.66489C10.4006 6.07678 10.8789 5.59851 11.467 5.59851C12.0551 5.59851 12.5334 6.07678 12.5334 6.66489C12.5334 7.253 12.0549 7.73127 11.467 7.73127Z" fill="#7D7A7A"/>
</svg>
