<svg width="20" height="20" viewBox="0 0 20 20" fill="none" xmlns="http://www.w3.org/2000/svg">
<path d="M16.9406 18.4142L0.736086 2.20971C0.329498 1.80312 0.329499 1.14316 0.736086 0.73657C1.14267 0.329982 1.80264 0.329982 2.20923 0.73657L18.4138 16.9411C18.8203 17.3477 18.8203 18.0077 18.4138 18.4142C18.0072 18.8208 17.3472 18.8208 16.9406 18.4142Z" fill="black"/>
<path d="M18.4142 2.20978L2.20971 18.4143C1.80312 18.8209 1.14316 18.8209 0.73657 18.4143C0.329982 18.0077 0.329982 17.3478 0.73657 16.9412L16.9411 0.736636C17.3477 0.330047 18.0077 0.330047 18.4142 0.736635C18.8208 1.14322 18.8208 1.80319 18.4142 2.20978Z" fill="black"/>
</svg>
