<svg width="21" height="21" viewBox="0 0 21 21" fill="none" xmlns="http://www.w3.org/2000/svg">
<path d="M17.9475 4.3807H13.5533V3.09171C13.5533 1.41099 12.2112 0.0164097 10.5306 0.000146328C8.83352 -0.0163224 7.44764 1.35945 7.44764 3.05277V4.38066H3.05337C2.57705 4.38066 2.19092 4.76679 2.19092 5.24311V12.2524C2.19092 12.9984 2.42629 13.6901 2.82659 14.2577C3.0693 14.6019 3.60575 14.4984 3.70616 14.0894C4.45596 11.0345 7.21762 8.76138 10.5005 8.76138C13.7833 8.76138 16.545 11.0345 17.2948 14.0894C17.3952 14.4985 17.9316 14.6019 18.1744 14.2577C18.5747 13.6901 18.81 12.9984 18.81 12.2524V5.24311C18.81 4.76683 18.4239 4.3807 17.9475 4.3807ZM11.8284 4.3807H9.17259V3.05277C9.17259 2.32055 9.76829 1.72489 10.5005 1.72489C11.2327 1.72489 11.8284 2.32055 11.8284 3.05277V4.3807Z" fill="#52AF56"/>
<path d="M15.7434 15.7166C15.7195 12.8308 13.3921 10.4863 10.5007 10.4863C7.6093 10.4863 5.28192 12.8308 5.25801 15.7166C5.26717 15.7178 5.24886 15.7155 5.25801 15.7166C5.25793 15.7301 5.25752 15.7434 5.25752 15.7569C5.25752 18.648 7.60959 21 10.5007 21C13.3918 21 15.7439 18.648 15.7439 15.7569C15.7439 15.7434 15.7435 15.7301 15.7434 15.7166C15.7342 15.7178 15.7525 15.7155 15.7434 15.7166ZM12.4248 15.4906L10.6725 17.2429C10.5041 17.4113 10.2834 17.4955 10.0626 17.4955C9.8419 17.4955 9.6212 17.4113 9.45281 17.2429L8.57669 16.3668C8.23988 16.03 8.23988 15.4839 8.57669 15.1471C8.91349 14.8103 9.45959 14.8103 9.7964 15.1471L10.0627 15.4134L11.2051 14.2709C11.5419 13.9342 12.088 13.9342 12.4248 14.2709C12.7616 14.6077 12.7616 15.1538 12.4248 15.4906Z" fill="#52AF56"/>
</svg>
