<svg width="24" height="21" viewBox="0 0 24 21" fill="none" xmlns="http://www.w3.org/2000/svg">
<path d="M17.469 0C16.1782 0 14.9948 0.409035 13.9517 1.21577C12.9516 1.98919 12.2858 2.97429 11.8938 3.69061C11.5018 2.97424 10.836 1.98919 9.83595 1.21577C8.79282 0.409035 7.60939 0 6.31858 0C2.71643 0 0 2.94637 0 6.85353C0 11.0746 3.38894 13.9626 8.51936 18.3347C9.39058 19.0772 10.3781 19.9187 11.4045 20.8163C11.5398 20.9348 11.7135 21 11.8938 21C12.0741 21 12.2478 20.9348 12.3831 20.8163C13.4096 19.9186 14.3971 19.0771 15.2688 18.3342C20.3987 13.9626 23.7876 11.0746 23.7876 6.85353C23.7876 2.94637 21.0712 0 17.469 0Z" fill="#E7535D"/>
</svg>
