<svg width="88" height="88" viewBox="0 0 88 88" fill="none" xmlns="http://www.w3.org/2000/svg">
<g clip-path="url(#clip0)">
<path d="M44.0004 0.941895C20.1553 0.941895 0.758301 20.3407 0.758301 44.184C0.758301 68.0273 20.1553 87.4261 44.0004 87.4261C67.8456 87.4261 87.2425 68.0273 87.2425 44.184C87.2425 20.3407 67.8456 0.941895 44.0004 0.941895ZM61.191 45.699L35.9665 61.9148C35.6709 62.1065 35.3295 62.2016 34.9917 62.2016C34.6961 62.2016 34.397 62.1276 34.1296 61.9817C33.5488 61.665 33.1899 61.0596 33.1899 60.3998V27.9682C33.1899 27.3084 33.5488 26.703 34.1296 26.3863C34.6996 26.0732 35.414 26.0924 35.9665 26.4532L61.191 42.669C61.7049 42.9998 62.018 43.5717 62.018 44.184C62.018 44.7963 61.7049 45.3681 61.191 45.699Z" fill="white"/>
</g>
<defs>
<clipPath id="clip0">
<rect width="86.4842" height="86.4842" fill="white" transform="translate(0.758301 0.941895)"/>
</clipPath>
</defs>
</svg>
