<svg width="20" height="21" viewBox="0 0 20 21" fill="none" xmlns="http://www.w3.org/2000/svg">
<path d="M18.9389 3.73367C18.9389 5.26481 17.6764 6.50607 16.1189 6.50607C14.5613 6.50607 13.2988 5.26481 13.2988 3.73367C13.2988 2.20268 14.5613 0.961426 16.1189 0.961426C17.6764 0.961426 18.9389 2.20268 18.9389 3.73367Z" fill="#BDBDBD"/>
<path d="M16.1183 7.14594C14.2041 7.14594 12.6475 5.61557 12.6475 3.73378C12.6475 1.85214 14.2041 0.321777 16.1183 0.321777C18.0325 0.321777 19.5891 1.85214 19.5891 3.73378C19.5891 5.61557 18.0325 7.14594 16.1183 7.14594ZM16.1183 1.6013C14.9217 1.6013 13.949 2.55844 13.949 3.73378C13.949 4.90928 14.9217 5.86642 16.1183 5.86642C17.3149 5.86642 18.2875 4.90928 18.2875 3.73378C18.2875 2.55844 17.3149 1.6013 16.1183 1.6013Z" fill="#BDBDBD"/>
<path d="M18.9389 17.3823C18.9389 18.9132 17.6764 20.1545 16.1189 20.1545C14.5613 20.1545 13.2988 18.9132 13.2988 17.3823C13.2988 15.8511 14.5613 14.6099 16.1189 14.6099C17.6764 14.6099 18.9389 15.8511 18.9389 17.3823Z" fill="#BDBDBD"/>
<path d="M16.1183 20.7944C14.2041 20.7944 12.6475 19.264 12.6475 17.3824C12.6475 15.5006 14.2041 13.9702 16.1183 13.9702C18.0325 13.9702 19.5891 15.5006 19.5891 17.3824C19.5891 19.264 18.0325 20.7944 16.1183 20.7944ZM16.1183 15.2497C14.9217 15.2497 13.949 16.2069 13.949 17.3824C13.949 18.5577 14.9217 19.5149 16.1183 19.5149C17.3149 19.5149 18.2875 18.5577 18.2875 17.3824C18.2875 16.2069 17.3149 15.2497 16.1183 15.2497Z" fill="#BDBDBD"/>
<path d="M6.79063 10.5589C6.79063 12.09 5.52797 13.3311 3.97043 13.3311C2.41304 13.3311 1.15039 12.09 1.15039 10.5589C1.15039 9.02772 2.41304 7.78662 3.97043 7.78662C5.52797 7.78662 6.79063 9.02772 6.79063 10.5589Z" fill="#BDBDBD"/>
<path d="M3.97083 13.97C2.05675 13.97 0.5 12.4398 0.5 10.558C0.5 8.6762 2.05675 7.146 3.97083 7.146C5.88507 7.146 7.44182 8.6762 7.44182 10.558C7.44182 12.4398 5.88507 13.97 3.97083 13.97ZM3.97083 8.42552C2.77427 8.42552 1.80158 9.3825 1.80158 10.558C1.80158 11.7335 2.77427 12.6905 3.97083 12.6905C5.16755 12.6905 6.14024 11.7335 6.14024 10.558C6.14024 9.3825 5.16755 8.42552 3.97083 8.42552Z" fill="#BDBDBD"/>
<path d="M6.01995 10.1488C5.71791 10.1488 5.42461 9.99428 5.26493 9.71797C5.02804 9.30938 5.17389 8.78817 5.58954 8.55435L13.641 4.04198C14.0566 3.80738 14.5868 3.95076 14.8247 4.36092C15.0616 4.76952 14.9157 5.29073 14.5001 5.52455L6.44846 10.0369C6.31309 10.1128 6.16565 10.1488 6.01995 10.1488Z" fill="#BDBDBD"/>
<path d="M14.0707 17.1867C13.9248 17.1867 13.7774 17.1507 13.642 17.0748L5.59039 12.5625C5.17475 12.3296 5.02905 11.8084 5.26595 11.3988C5.50189 10.9895 6.03289 10.8453 6.44948 11.0799L14.5011 15.5923C14.9167 15.8252 15.0624 16.3464 14.8255 16.7559C14.6651 17.0322 14.3718 17.1867 14.0707 17.1867Z" fill="#BDBDBD"/>
</svg>
