<svg width="29" height="28" viewBox="0 0 29 28" fill="none" xmlns="http://www.w3.org/2000/svg">
<path d="M28.3439 3.49354C24.8343 3.49354 19.8761 3.78719 17.3423 6.31964C16.2452 7.41666 15.6974 9.20501 15.8397 11.2292C15.8581 11.4965 16.0359 11.7243 16.2914 11.8086C16.5455 11.8916 16.8247 11.8139 16.9985 11.6098C18.4077 9.95177 20.1592 8.62301 22.2083 7.66032C22.3822 7.57735 22.5876 7.57074 22.7746 7.63661C22.9392 7.69587 23.0683 7.80779 23.1354 7.95138C23.275 8.24639 23.2302 8.63486 22.7667 8.85345C22.7403 8.8666 22.7166 8.88376 22.6903 8.89562C22.6811 8.89957 22.6706 8.89827 22.6627 8.90222C17.6136 11.2753 15.1312 15.4158 14.0039 19.6734C13.1821 14.3425 11.4464 11.2042 9.80682 9.27755C8.62029 7.73939 7.45345 6.92417 6.77923 6.46329C6.6541 6.37767 6.27618 6.11957 6.11945 5.96284C5.86264 5.70604 5.86264 5.28855 6.11945 5.03175C6.37625 4.77624 6.79503 4.77624 7.08078 5.0607C7.1506 5.12262 7.26252 5.20163 7.40475 5.29645L7.52197 5.37547C8.47541 6.02864 10.2507 7.24153 11.8257 9.853C11.9666 10.0861 12.2392 10.2112 12.5039 10.1612C12.7726 10.1138 12.9833 9.90702 13.036 9.63966C13.3797 7.88421 13.2256 5.27929 11.6598 3.71348C9.12605 1.18233 4.16782 0.888672 0.659523 0.888672C0.295989 0.88861 0.000976562 1.18362 0.000976562 1.54709C0.000976562 5.05669 0.294631 10.0149 2.82708 12.5487C3.88324 13.6049 5.51232 14.079 7.13078 14.079C8.45164 14.079 9.7462 13.7484 10.7379 13.1756C12.0903 15.978 13.1702 20.1645 13.1702 26.5687C13.1702 26.9322 13.4653 27.2272 13.8287 27.2272C14.1922 27.2272 14.4872 26.9322 14.4872 26.5687C14.4872 22.9959 15.0996 18.7079 17.3765 15.1786C18.2892 16.0702 19.8603 16.6351 21.6012 16.6878C21.6881 16.6905 21.7738 16.6917 21.8593 16.6917C23.628 16.6917 25.1911 16.1373 26.1749 15.1522C28.7086 12.6185 29.001 7.66026 29.001 4.1506C29.0024 3.78719 28.7087 3.49354 28.3439 3.49354Z" fill="white"/>
</svg>
