<svg width="14" height="14" viewBox="0 0 14 14" fill="none" xmlns="http://www.w3.org/2000/svg">
<path d="M12.5417 0H8.84157C8.1404 0 7.48065 0.273 6.98482 0.768824L0.497574 7.25668C0.181426 7.57282 0 8.01032 0 8.4595C0 8.90632 0.181426 9.34382 0.497574 9.66L4.34057 13.503C4.65618 13.8186 5.09368 14 5.54282 14C5.98965 14 6.42715 13.8186 6.74332 13.5024L13.2311 7.0146C13.727 6.51932 14 5.85957 14 5.15843V1.45832C14 0.653926 13.3461 0 12.5417 0ZM10.7917 4.66668C9.98725 4.66668 9.33335 4.01275 9.33335 3.20835C9.33335 2.40393 9.98728 1.75003 10.7917 1.75003C11.5961 1.75003 12.25 2.40393 12.25 3.20832C12.25 4.01275 11.5961 4.66668 10.7917 4.66668Z" fill="black"/>
</svg>
