<svg width="19" height="25" viewBox="0 0 19 25" fill="none" xmlns="http://www.w3.org/2000/svg">
<path d="M18.2895 6.84635C18.7893 6.84635 19.1358 6.34109 18.9484 5.87776C18.283 4.2327 16.669 3.06905 14.7882 3.06905H13.9188C13.5945 1.35638 12.0929 0 10.2555 0H8.74454C6.90825 0 5.40565 1.35548 5.08122 3.06905H4.21178C2.33097 3.06905 0.717029 4.2327 0.0516109 5.87776C-0.13579 6.34109 0.21073 6.84635 0.710513 6.84635H18.2895ZM8.74454 1.41649H10.2555C11.2895 1.41649 12.1672 2.11217 12.4627 3.06905H6.53728C6.83276 2.11217 7.71051 1.41649 8.74454 1.41649Z" fill="#BDBDBD"/>
<path d="M2.65664 22.2007C2.73545 23.3076 3.66641 24.1746 4.77599 24.1746H14.2249C15.3345 24.1746 16.2655 23.3076 16.3443 22.2007L17.3369 8.2627H1.66406L2.65664 22.2007ZM11.4373 12.0518C11.4568 11.6612 11.7899 11.3599 12.18 11.3799C12.5706 11.3994 12.8715 11.732 12.8519 12.1226L12.4742 19.6772C12.4553 20.0558 12.1423 20.35 11.7674 20.35C11.3596 20.35 11.0394 20.009 11.0595 19.6064L11.4373 12.0518ZM6.82102 11.3799C7.21116 11.3603 7.54423 11.6612 7.56373 12.0518L7.94146 19.6064C7.96157 20.0092 7.64107 20.35 7.2335 20.35C6.8586 20.35 6.54565 20.0558 6.52672 19.6772L6.14899 12.1226C6.12949 11.732 6.43035 11.3994 6.82102 11.3799Z" fill="#BDBDBD"/>
</svg>
