<svg width="16" height="17" viewBox="0 0 16 17" fill="none" xmlns="http://www.w3.org/2000/svg">
<path d="M15.22 7.75077L13.6955 7.75077C13.3764 6.88216 12.561 6.26172 11.586 6.26172C10.611 6.26172 9.7956 6.88216 9.47651 7.75077L0.790348 7.75077C0.382629 7.75077 0.0458202 8.08758 0.0458201 8.51303C0.0458201 8.93847 0.38263 9.27529 0.808076 9.27529L9.49424 9.27529C9.81332 10.1439 10.6288 10.7643 11.6037 10.7643C12.5787 10.7643 13.3764 10.1262 13.6955 9.25756L15.2377 9.25756C15.6632 9.25756 16 8.92075 16 8.4953C16 8.06986 15.6455 7.75077 15.22 7.75077Z" fill="black"/>
<path d="M15.22 13.4949L6.39204 13.4949C6.07295 12.6263 5.25752 12.0059 4.28254 12.0059C3.30756 12.0059 2.49213 12.6263 2.17304 13.4949L0.790348 13.4949C0.364902 13.4949 0.0280933 13.8317 0.0280932 14.2394C0.0280932 14.6649 0.364902 15.0017 0.790348 15.0017L2.19077 15.0017C2.49213 15.8703 3.30756 16.4908 4.28254 16.4908C5.25752 16.4908 6.07295 15.8526 6.40977 14.984L15.2377 14.984C15.6455 15.0017 16 14.6649 16 14.2217C16 13.8317 15.6455 13.4949 15.22 13.4949Z" fill="black"/>
<path d="M0.790348 3.51439L4.8498 3.51439C5.16888 4.38301 5.98432 5.00345 6.9593 5.00345C7.93428 5.00345 8.73198 4.38301 9.0688 3.5144L15.22 3.5144C15.6455 3.5144 16 3.17759 16 2.75214C16 2.3267 15.6455 1.98988 15.22 1.98988L9.05107 1.98988C8.73198 1.13899 7.93428 0.518554 6.9593 0.518554C5.98432 0.518554 5.16888 1.13899 4.8498 2.00761L0.808076 2.00761C0.38263 2.00761 0.0458202 2.34442 0.0458201 2.76987C0.0458201 3.17758 0.364902 3.51439 0.790348 3.51439Z" fill="black"/>
</svg>
