<svg width="29" height="19" viewBox="0 0 29 19" fill="none" xmlns="http://www.w3.org/2000/svg">
<path d="M28.325 18.8253H0.496953C0.222526 18.8253 0 18.6038 0 18.3306V0.522998C0 0.249827 0.222526 0.0283203 0.496953 0.0283203H28.325C28.5995 0.0283203 28.822 0.249827 28.822 0.522998V18.3306C28.8219 18.6038 28.5994 18.8253 28.325 18.8253Z" fill="white"/>
<path d="M28.8219 8.03972H15.9018V0.0888672H12.9202V8.03972H0V11.0213H12.9202V18.9722H15.9018V11.0213H28.8219V8.03972Z" fill="#FF4B55"/>
<path d="M8.44751 3.38524C7.95529 3.43472 7.47308 3.48432 6.9902 3.53397C7.03985 3.05103 7.08939 2.56883 7.13898 2.07666C6.68757 2.13504 6.23211 2.13504 5.78069 2.07666C5.83018 2.56883 5.87977 3.05109 5.92948 3.53397C5.44654 3.48437 4.96428 3.43478 4.47217 3.38524C4.53054 3.8366 4.53054 4.29212 4.47217 4.74348C4.96439 4.69399 5.4466 4.6444 5.92948 4.59475C5.87983 5.07769 5.83023 5.55989 5.78069 6.05206C6.23211 5.99368 6.68757 5.99368 7.13898 6.05206C7.0895 5.55989 7.03985 5.07763 6.9902 4.59475C7.47314 4.64434 7.95534 4.69394 8.44751 4.74348C8.38919 4.29212 8.38919 3.83654 8.44751 3.38524Z" fill="#FF4B55"/>
<path d="M24.3494 3.38524C23.8571 3.43472 23.3749 3.48432 22.8921 3.53397C22.9417 3.05103 22.9912 2.56883 23.0408 2.07666C22.5894 2.13504 22.134 2.13504 21.6825 2.07666C21.732 2.56883 21.7816 3.05109 21.8313 3.53397C21.3484 3.48437 20.8661 3.43478 20.374 3.38524C20.4324 3.8366 20.4324 4.29212 20.374 4.74348C20.8662 4.69399 21.3485 4.6444 21.8313 4.59475C21.7817 5.07769 21.7321 5.55989 21.6825 6.05206C22.134 5.99368 22.5894 5.99368 23.0408 6.05206C22.9914 5.55989 22.9417 5.07763 22.8921 4.59475C23.375 4.64434 23.8572 4.69394 24.3494 4.74348C24.291 4.29212 24.291 3.83654 24.3494 3.38524Z" fill="#FF4B55"/>
<path d="M8.44751 14.3174C7.95529 14.3669 7.47308 14.4164 6.9902 14.4661C7.03985 13.9832 7.08939 13.501 7.13898 13.0088C6.68757 13.0672 6.23211 13.0672 5.78069 13.0088C5.83018 13.501 5.87977 13.9832 5.92948 14.4661C5.44654 14.4165 4.96428 14.3669 4.47217 14.3174C4.53054 14.7687 4.53054 15.2242 4.47217 15.6756C4.96439 15.6261 5.4466 15.5765 5.92948 15.5269C5.87983 16.0098 5.83023 16.492 5.78069 16.9842C6.23211 16.9258 6.68757 16.9258 7.13898 16.9842C7.0895 16.492 7.03985 16.0098 6.9902 15.5269C7.47314 15.5765 7.95534 15.6261 8.44751 15.6756C8.38919 15.2243 8.38919 14.7687 8.44751 14.3174Z" fill="#FF4B55"/>
<path d="M24.3494 14.3174C23.8571 14.3669 23.3749 14.4164 22.8921 14.4661C22.9417 13.9832 22.9912 13.501 23.0408 13.0088C22.5894 13.0672 22.134 13.0672 21.6825 13.0088C21.732 13.501 21.7816 13.9832 21.8313 14.4661C21.3484 14.4165 20.8661 14.3669 20.374 14.3174C20.4324 14.7687 20.4324 15.2242 20.374 15.6756C20.8662 15.6261 21.3485 15.5765 21.8313 15.5269C21.7817 16.0098 21.7321 16.492 21.6825 16.9842C22.134 16.9258 22.5894 16.9258 23.0408 16.9842C22.9914 16.492 22.9417 16.0098 22.8921 15.5269C23.375 15.5765 23.8572 15.6261 24.3494 15.6756C24.291 15.2243 24.291 14.7687 24.3494 14.3174Z" fill="#FF4B55"/>
</svg>
