<svg width="17" height="32" viewBox="0 0 17 32" fill="none" xmlns="http://www.w3.org/2000/svg">
<path d="M16.3685 25.4232C16.5387 25.3534 16.6866 25.2405 16.7967 25.0961C16.9068 24.9518 16.975 24.7813 16.9943 24.6025C17.0137 24.4237 16.9833 24.2431 16.9064 24.0796C16.8296 23.9161 16.7091 23.7757 16.5574 23.6731C16.4358 23.5907 16.3338 23.4838 16.2584 23.3597C16.1831 23.2355 16.136 23.097 16.1205 22.9536C16.105 22.8101 16.1215 22.6651 16.1687 22.5284C16.2159 22.3917 16.2929 22.2666 16.3942 22.1614C16.5206 22.0303 16.6085 21.8685 16.6488 21.6931C16.689 21.5176 16.6802 21.3348 16.6231 21.1638C16.566 20.9928 16.4629 20.8399 16.3243 20.721C16.1858 20.602 16.0171 20.5215 15.8357 20.4878C15.6901 20.4607 15.5523 20.4034 15.4316 20.3199C15.3108 20.2363 15.21 20.1284 15.1359 20.0035C15.0619 19.8786 15.0163 19.7396 15.0023 19.596C14.9884 19.4524 15.0063 19.3076 15.055 19.1714C15.1157 19.0016 15.1284 18.819 15.0919 18.6428C15.0554 18.4665 14.9709 18.3031 14.8473 18.1695C14.7237 18.0358 14.5656 17.937 14.3894 17.8832C14.2131 17.8294 14.0253 17.8226 13.8455 17.8636C13.7012 17.8965 13.5514 17.8988 13.4062 17.8703C13.261 17.8417 13.1238 17.7831 13.0039 17.6983C12.8841 17.6135 12.7844 17.5046 12.7116 17.379C12.6389 17.2533 12.5948 17.1139 12.5823 16.9702C12.5668 16.791 12.5022 16.6192 12.3952 16.4727C12.2882 16.3261 12.1427 16.2103 11.974 16.1371C11.8053 16.064 11.6195 16.0363 11.436 16.0569C11.2526 16.0776 11.0782 16.1458 10.931 16.2545C10.813 16.3416 10.6771 16.403 10.5325 16.4344C10.3879 16.4659 10.238 16.4666 10.0931 16.4366C9.94823 16.4067 9.81165 16.3466 9.6927 16.2607C9.57375 16.1747 9.47522 16.0648 9.4038 15.9384C9.31478 15.7809 9.18395 15.6495 9.02497 15.558C8.86599 15.4665 8.6847 15.4183 8.50001 15.4183C8.31533 15.4183 8.13403 15.4665 7.97505 15.558C7.81607 15.6495 7.68524 15.7809 7.59621 15.9384C7.5248 16.0648 7.42627 16.1747 7.30732 16.2607C7.18837 16.3466 7.0518 16.4067 6.90688 16.4366C6.76197 16.4666 6.61213 16.4659 6.46754 16.4344C6.32296 16.403 6.18702 16.3416 6.06899 16.2545C5.92185 16.1458 5.74745 16.0776 5.56398 16.0569C5.38052 16.0363 5.19473 16.064 5.02601 16.1371C4.8573 16.2103 4.71184 16.3261 4.60483 16.4727C4.49783 16.6192 4.4332 16.791 4.41769 16.9702C4.40524 17.1139 4.36114 17.2533 4.2884 17.379C4.21565 17.5046 4.11596 17.6135 3.99611 17.6983C3.87625 17.7831 3.73905 17.8417 3.59383 17.8703C3.44861 17.8988 3.29878 17.8965 3.15454 17.8636C2.97472 17.8226 2.78689 17.8294 2.61067 17.8832C2.43444 17.937 2.27629 18.0358 2.15271 18.1695C2.02913 18.3031 1.94467 18.4665 1.90814 18.6428C1.8716 18.819 1.88434 19.0016 1.94502 19.1714C1.9937 19.3076 2.01166 19.4524 1.9977 19.596C1.98373 19.7396 1.93816 19.8786 1.86408 20.0035C1.79001 20.1284 1.68917 20.2363 1.56842 20.3199C1.44768 20.4034 1.30986 20.4607 1.16434 20.4878C0.98294 20.5215 0.81417 20.602 0.675654 20.721C0.537139 20.8399 0.433958 20.9928 0.376887 21.1638C0.319816 21.3348 0.310948 21.5176 0.351208 21.6931C0.391468 21.8685 0.47938 22.0303 0.605764 22.1614C0.707144 22.2666 0.784066 22.3917 0.831296 22.5284C0.878526 22.6651 0.894957 22.8102 0.87947 22.9536C0.863984 23.097 0.816943 23.2355 0.741549 23.3597C0.666155 23.4838 0.564176 23.5907 0.44255 23.6731C0.290933 23.7757 0.170407 23.9161 0.0935553 24.0796C0.0167039 24.2431 -0.0136538 24.4237 0.00565216 24.6025C0.0249581 24.7813 0.0932198 24.9518 0.203309 25.0961C0.313399 25.2405 0.461279 25.3534 0.631508 25.4232C0.768059 25.4791 0.890632 25.563 0.99089 25.6692C1.09115 25.7754 1.16674 25.9013 1.21252 26.0385C1.2583 26.1757 1.27319 26.3208 1.25619 26.4641C1.23918 26.6074 1.19068 26.7454 1.11398 26.8688C1.01836 27.0226 0.966909 27.1986 0.965004 27.3784C0.963099 27.5582 1.01081 27.7352 1.10315 27.8909C1.19549 28.0466 1.32908 28.1753 1.48997 28.2636C1.65085 28.3519 1.83313 28.3965 2.01778 28.3928C2.1659 28.3898 2.31294 28.4179 2.44889 28.4752C2.58485 28.5325 2.70654 28.6177 2.80567 28.7248C2.9048 28.832 2.97906 28.9587 3.02338 29.0964C3.06771 29.234 3.08107 29.3793 3.06255 29.5224C3.03946 29.7008 3.06598 29.8819 3.13935 30.0469C3.21272 30.2119 3.33025 30.3547 3.47967 30.4604C3.62908 30.5661 3.8049 30.6308 3.98876 30.6477C4.17262 30.6647 4.35779 30.6332 4.52492 30.5567C4.65899 30.4954 4.80506 30.4628 4.95319 30.4613C5.10133 30.4599 5.24806 30.4895 5.3834 30.5481C5.51873 30.6068 5.63951 30.6931 5.73749 30.8013C5.83548 30.9095 5.90839 31.0369 5.95125 31.175C6.00469 31.3471 6.10461 31.5021 6.24057 31.6237C6.37654 31.7454 6.54356 31.8293 6.72421 31.8667C6.90486 31.9041 7.0925 31.8936 7.26755 31.8363C7.44259 31.7789 7.59862 31.6769 7.71935 31.5409C7.81618 31.4317 7.93603 31.3441 8.07074 31.2841C8.20545 31.2241 8.35186 31.193 8.50001 31.193C8.64815 31.193 8.79456 31.2241 8.92927 31.2841C9.06398 31.3441 9.18383 31.4317 9.28067 31.5409C9.40138 31.6769 9.55741 31.7789 9.73246 31.8363C9.90751 31.8936 10.0952 31.9041 10.2758 31.8667C10.4565 31.8293 10.6235 31.7454 10.7594 31.6238C10.8954 31.5021 10.9953 31.3471 11.0488 31.175C11.0916 31.0369 11.1645 30.9095 11.2625 30.8013C11.3605 30.6931 11.4813 30.6068 11.6166 30.5481C11.752 30.4895 11.8987 30.4599 12.0468 30.4614C12.195 30.4628 12.341 30.4954 12.4751 30.5567C12.6422 30.6332 12.8274 30.6647 13.0113 30.6477C13.1951 30.6308 13.3709 30.5661 13.5204 30.4604C13.6698 30.3547 13.7873 30.2119 13.8607 30.0469C13.934 29.8819 13.9606 29.7008 13.9375 29.5224C13.919 29.3793 13.9323 29.234 13.9766 29.0964C14.021 28.9587 14.0952 28.832 14.1944 28.7249C14.2935 28.6177 14.4152 28.5325 14.5511 28.4752C14.6871 28.4179 14.8341 28.3898 14.9822 28.3928C15.1669 28.3965 15.3492 28.3519 15.51 28.2636C15.6709 28.1753 15.8045 28.0466 15.8969 27.8909C15.9892 27.7352 16.0369 27.5582 16.035 27.3784C16.0331 27.1986 15.9816 27.0226 15.886 26.8688C15.8093 26.7454 15.7608 26.6074 15.7438 26.4641C15.7268 26.3208 15.7417 26.1757 15.7875 26.0385C15.8332 25.9013 15.9088 25.7754 16.0091 25.6692C16.1094 25.563 16.2319 25.4791 16.3685 25.4232ZM8.50001 29.5637C7.31551 29.5637 6.15761 29.2218 5.17274 28.5811C4.18786 27.9405 3.42025 27.0299 2.96696 25.9645C2.51367 24.8992 2.39507 23.7269 2.62616 22.5959C2.85724 21.4649 3.42763 20.426 4.2652 19.6106C5.10276 18.7952 6.16989 18.2399 7.33163 18.0149C8.49336 17.79 9.69754 17.9054 10.7919 18.3467C11.8862 18.788 12.8215 19.5353 13.4796 20.4941C14.1377 21.4529 14.4889 22.5802 14.4889 23.7333C14.4889 24.499 14.334 25.2572 14.0331 25.9645C13.7321 26.6719 13.2909 27.3147 12.7348 27.8561C12.1787 28.3975 11.5185 28.8269 10.7919 29.1199C10.0653 29.4129 9.28648 29.5637 8.50001 29.5637ZM13.0622 23.7333C13.0622 24.6118 12.7946 25.4705 12.2933 26.2009C11.792 26.9313 11.0795 27.5005 10.2459 27.8367C9.41225 28.1729 8.49494 28.2608 7.60996 28.0894C6.72498 27.9181 5.91207 27.4951 5.27404 26.8739C4.636 26.2528 4.20149 25.4614 4.02546 24.5998C3.84943 23.7383 3.93977 22.8452 4.28508 22.0337C4.63038 21.2221 5.21513 20.5284 5.96538 20.0404C6.71563 19.5524 7.59769 19.2919 8.50001 19.2919C9.09912 19.2919 9.69238 19.4067 10.2459 19.6299C10.7994 19.8532 11.3023 20.1803 11.726 20.5927C12.1496 21.0052 12.4857 21.4948 12.7149 22.0337C12.9442 22.5725 13.0622 23.1501 13.0622 23.7333ZM3.28064 3.17237L6.85064 14.1568L4.43053 13.4128L1.21983 12.4243C1.10669 12.3895 1.0017 12.3333 0.910866 12.2589C0.820033 12.1846 0.745133 12.0936 0.690444 11.991C0.635756 11.8885 0.60235 11.7765 0.592136 11.6614C0.581921 11.5463 0.595098 11.4304 0.630914 11.3202L3.28064 3.17237ZM7.20446 0.888672L11.3901 13.7779L9.36056 14.4019C9.13213 14.4721 8.88441 14.4512 8.67185 14.3436C8.4593 14.2361 8.29932 14.0507 8.22708 13.8284L4.02368 0.888672H7.20446ZM13.75 13.0512L9.80144 0.888672H12.9787L16.3683 11.321C16.4406 11.5433 16.4192 11.7844 16.3088 11.9914C16.1985 12.1984 16.0083 12.3542 15.78 12.4247L13.75 13.0512Z" fill="white"/>
</svg>
