<svg width="24" height="15" viewBox="0 0 24 15" fill="none" xmlns="http://www.w3.org/2000/svg">
<path fill-rule="evenodd" clip-rule="evenodd" d="M16.5989 0.302615C18.6176 0.777552 19.3899 1.97435 20.358 3.62159H16.5989V0.302615ZM4.80132 3.75991C5.19657 3.75991 5.48347 3.95334 5.48347 4.4054C5.48347 4.78668 5.17917 5.09592 4.80327 5.09701H0.682147C0.305367 5.09701 0 5.40679 0 5.78861C0 6.17061 0.305367 6.48021 0.682147 6.48021H6.82147C7.2018 6.48021 7.50628 6.78963 7.50628 7.17181C7.50628 7.55382 7.20091 7.86342 6.82413 7.86342H0.682147C0.305367 7.86342 0 8.17302 0 8.55502C0 8.93702 0.305367 9.24662 0.682147 9.24662H2.18287V11.3214C2.18287 11.7034 2.48824 12.013 2.86502 12.013H4.23624C4.48068 13.2338 5.54458 14.1339 6.79873 14.1339C8.05289 14.1339 9.11679 13.2338 9.36122 12.013H16.2875C16.5319 13.2338 17.5958 14.1339 18.85 14.1339C20.1042 14.1339 21.1681 13.2338 21.4125 12.013H22.6018C22.9786 12.013 23.284 11.7034 23.284 11.3214V7.17181C23.284 5.14257 21.1728 5.00785 21.1709 5.00479H15.9168C15.54 5.00479 15.2346 4.69519 15.2346 4.31319V0.163574H2.86502C2.48824 0.163574 2.18287 0.473174 2.18287 0.855177V2.3767H1.36429C0.987514 2.3767 0.682147 2.6863 0.682147 3.0683C0.682147 3.45031 0.987514 3.75991 1.36429 3.75991H4.80132ZM19.7343 10.5862C20.2226 11.0813 20.2226 11.8844 19.7343 12.3795C18.9488 13.176 17.5994 12.6094 17.5994 11.4828C17.5994 10.3564 18.9488 9.78982 19.7343 10.5862ZM7.68304 10.5862C8.17138 11.0813 8.17138 11.8844 7.68304 12.3795C6.8975 13.176 5.54813 12.6094 5.54813 11.4828C5.54813 10.3564 6.8975 9.78982 7.68304 10.5862Z" fill="#52AF56"/>
</svg>
