<svg width="20" height="20" viewBox="0 0 20 20" fill="none" xmlns="http://www.w3.org/2000/svg">
<path d="M9.51741 1C5.92374 1 3 3.92374 3 7.51741C3 12.0343 9.52382 19.75 9.52382 19.75C9.52382 19.75 16.0348 11.8122 16.0348 7.51741C16.0348 3.92374 13.1112 1 9.51741 1ZM11.4838 9.42571C10.9416 9.96782 10.2296 10.2389 9.51741 10.2389C8.80536 10.2389 8.09308 9.96782 7.55109 9.42571C6.46676 8.3415 6.46676 6.57728 7.55109 5.49295C8.07614 4.96767 8.77457 4.67836 9.51741 4.67836C10.2602 4.67836 10.9586 4.96778 11.4838 5.49295C12.5682 6.57728 12.5682 8.3415 11.4838 9.42571Z" fill="#CCCCCC"/>
</svg>
