<svg width="14" height="19" viewBox="0 0 14 19" fill="none" xmlns="http://www.w3.org/2000/svg">
<path d="M1.75 7.125H2.33333V4.75C2.33333 2.13037 4.42633 0 7 0C9.57367 0 11.6667 2.13037 11.6667 4.75V7.125H12.25C13.2144 7.125 14 7.92379 14 8.90625V17.2188C14 18.2012 13.2144 19 12.25 19H1.75C0.785556 19 0 18.2012 0 17.2188V8.90625C0 7.92379 0.785556 7.125 1.75 7.125ZM10.1111 4.75C10.1111 3.00358 8.71578 1.58333 7 1.58333C5.28422 1.58333 3.88889 3.00358 3.88889 4.75V7.125H10.1111V4.75ZM6.22222 13.2383V15.0417C6.22222 15.4787 6.56989 15.8333 7 15.8333C7.43011 15.8333 7.77778 15.4787 7.77778 15.0417V13.2383C8.24056 12.9635 8.55556 12.4585 8.55556 11.875C8.55556 11.0018 7.85789 10.2917 7 10.2917C6.14211 10.2917 5.44444 11.0018 5.44444 11.875C5.44444 12.4585 5.75944 12.9635 6.22222 13.2383Z" fill="#7D7A7A"/>
</svg>
