<svg width="20" height="25" viewBox="0 0 20 25" fill="none" xmlns="http://www.w3.org/2000/svg">
<g clip-path="url(#clip0)">
<path fill-rule="evenodd" clip-rule="evenodd" d="M9.25382 12.5044C9.02049 12.4802 8.78549 12.5561 8.60966 12.7136C8.43382 12.8719 8.33382 13.0969 8.33382 13.3336V14.1669C8.33382 14.2519 8.30966 15.0002 7.50049 15.0002C6.69049 15.0002 6.66715 14.2519 6.66715 14.1669V13.3336C6.66715 13.0969 6.56632 12.8719 6.39049 12.7136C6.21549 12.5561 5.97965 12.4802 5.74632 12.5044C2.41716 12.8536 0.000488281 15.6561 0.000488281 19.1669C0.000488281 19.6269 0.372988 20.0002 0.833822 20.0002H14.1672C14.6272 20.0002 15.0005 19.6269 15.0005 19.1669C15.0005 15.6561 12.583 12.8536 9.25382 12.5044Z" fill="black"/>
<path fill-rule="evenodd" clip-rule="evenodd" d="M0.833094 5.83333H3.34226C3.34143 5.87167 3.33309 5.90917 3.33309 5.94833V8.47667C3.33309 10.6792 5.20226 12.4708 7.49976 12.4708C9.79726 12.4708 11.6664 10.6792 11.6664 8.47667V5.94833C11.6664 5.90917 11.6581 5.87167 11.6573 5.83333H14.1664C14.5448 5.83333 14.8756 5.57833 14.9723 5.2125C15.0689 4.84667 14.9073 4.46167 14.5773 4.275L13.2756 3.53667C11.9664 2.79417 11.1706 2.08833 10.0156 1.015C9.32143 0.37 8.32059 0 7.27059 0C6.21893 0 5.21893 0.37 4.52476 1.015C4.12726 1.38417 3.81476 1.7175 3.52393 2.0275C2.95893 2.63083 2.55059 3.0675 1.72393 3.53667L0.422261 4.275C0.0922611 4.46167 -0.0694056 4.84667 0.027261 5.2125C0.123928 5.57833 0.454761 5.83333 0.833094 5.83333Z" fill="black"/>
<path fill-rule="evenodd" clip-rule="evenodd" d="M19.1663 9.1665C18.7055 9.1665 18.333 9.53984 18.333 9.99984V12.4998C18.333 13.114 17.9955 13.6457 17.4997 13.9348V9.99984C17.4997 9.53984 17.1272 9.1665 16.6663 9.1665C16.2055 9.1665 15.833 9.53984 15.833 9.99984V13.9348C15.3372 13.6457 14.9997 13.114 14.9997 12.4998V9.99984C14.9997 9.53984 14.6272 9.1665 14.1663 9.1665C13.7055 9.1665 13.333 9.53984 13.333 9.99984V12.4998C13.333 14.0482 14.3988 15.3423 15.833 15.7148V19.1665C15.833 19.6265 16.2055 19.9998 16.6663 19.9998C17.1272 19.9998 17.4997 19.6265 17.4997 19.1665V15.7148C18.9338 15.3423 19.9997 14.0482 19.9997 12.4998V9.99984C19.9997 9.53984 19.6272 9.1665 19.1663 9.1665Z" fill="black"/>
</g>
<defs>
<clipPath id="clip0">
<rect width="20" height="25" fill="white"/>
</clipPath>
</defs>
</svg>
