<svg width="60" height="91" viewBox="0 0 60 91" fill="none" xmlns="http://www.w3.org/2000/svg">
<path d="M51.3473 23.2889H45.9473C45.9473 10.4889 38.7473 0.0888672 29.9473 0.0888672C21.1473 0.0888672 13.9473 10.4889 13.9473 23.2889H8.64727C4.14727 23.2889 0.447266 26.9889 0.447266 31.4889V82.4889C0.447266 86.9889 4.14727 90.6889 8.64727 90.6889H51.4473C55.9473 90.6889 59.6473 86.9889 59.6473 82.4889V31.4889C59.5473 26.8889 55.8473 23.2889 51.3473 23.2889ZM29.9473 3.58887C36.8473 3.58887 42.5473 12.3889 42.5473 23.2889H17.3473C17.3473 12.3889 23.0473 3.58887 29.9473 3.58887ZM14.7473 47.5889C14.2473 46.8889 13.7473 46.2889 13.2473 45.6889C12.7473 46.2889 12.2473 46.9889 11.7473 47.5889C10.6473 49.0889 8.14726 47.6889 9.24726 46.0889C9.84727 45.1889 10.5473 44.3889 11.2473 43.4889C10.6473 42.8889 10.0473 42.3889 9.44727 41.8889C8.04727 40.6889 10.0473 38.6889 11.4473 39.8889C12.0473 40.3889 12.6473 40.8889 13.1473 41.4889C13.7473 40.9889 14.2473 40.3889 14.8473 39.8889C16.2473 38.6889 18.3473 40.6889 16.8473 41.8889C16.2473 42.3889 15.6473 42.9889 15.0473 43.4889C15.7473 44.2889 16.4473 45.1889 17.0473 46.0889C18.3473 47.6889 15.8473 49.0889 14.7473 47.5889ZM29.3473 75.8889C22.7473 75.8889 17.3473 70.4889 17.3473 63.8889C17.3473 57.2889 22.7473 51.8889 29.3473 51.8889C35.9473 51.8889 41.3473 57.2889 41.3473 63.8889C41.3473 70.4889 35.9473 75.8889 29.3473 75.8889ZM48.1473 47.5889C47.6473 46.8889 47.1473 46.2889 46.6473 45.6889C46.1473 46.2889 45.6473 46.9889 45.1473 47.5889C44.0473 49.0889 41.5473 47.6889 42.6473 46.0889C43.2473 45.1889 43.9473 44.3889 44.6473 43.4889C44.0473 42.8889 43.4473 42.3889 42.8473 41.8889C41.4473 40.6889 43.4473 38.6889 44.8473 39.8889C45.4473 40.3889 46.0473 40.8889 46.5473 41.4889C47.1473 40.9889 47.6473 40.3889 48.2473 39.8889C49.6473 38.6889 51.7473 40.6889 50.2473 41.8889C49.6473 42.3889 49.0473 42.9889 48.4473 43.4889C49.1473 44.2889 49.8473 45.1889 50.4473 46.0889C51.6473 47.6889 49.1473 49.0889 48.1473 47.5889Z" fill="#CCCCCC"/>
</svg>
