<svg width="21" height="21" viewBox="0 0 21 21" fill="none" xmlns="http://www.w3.org/2000/svg">
<path d="M6.3 16.8C5.145 16.8 4.2 17.745 4.2 18.9C4.2 20.055 5.145 21 6.3 21C7.455 21 8.4 20.055 8.4 18.9C8.4 17.745 7.455 16.8 6.3 16.8ZM0 0V2.1H2.1L5.88 10.08L4.41 12.6C4.305 12.915 4.2 13.335 4.2 13.65C4.2 14.805 5.145 15.75 6.3 15.75H18.9V13.65H6.72C6.615 13.65 6.51 13.545 6.51 13.44V13.335L7.455 11.55H15.225C16.065 11.55 16.695 11.13 17.01 10.5L20.79 3.675C21 3.465 21 3.36 21 3.15C21 2.52 20.58 2.1 19.95 2.1H4.41L3.465 0H0ZM16.8 16.8C15.645 16.8 14.7 17.745 14.7 18.9C14.7 20.055 15.645 21 16.8 21C17.955 21 18.9 20.055 18.9 18.9C18.9 17.745 17.955 16.8 16.8 16.8Z" fill="white"/>
</svg>
