<svg width="24" height="24" viewBox="0 0 24 24" fill="none" xmlns="http://www.w3.org/2000/svg">
<path d="M5.27169 14.465L4.4437 17.5539L1.41742 17.6178C0.513 15.9415 0 14.0236 0 11.9854C0 10.0146 0.479642 8.15603 1.32984 6.51953H1.33049L4.02474 7.01314L5.20498 9.68936C4.95796 10.409 4.82332 11.1816 4.82332 11.9854C4.82341 12.8579 4.98156 13.6938 5.27169 14.465Z" fill="#FBBB00"/>
<path d="M23.7893 9.71094C23.9278 10.4402 24 11.1933 24 11.963C24 12.8261 23.9092 13.668 23.7363 14.4801C23.1494 17.2435 21.6157 19.6565 19.4912 21.3642L19.4905 21.3635L16.0503 21.188L15.5634 18.149C16.9732 17.3223 18.0749 16.0287 18.6552 14.4801H12.208V9.71094H18.7493H23.7893Z" fill="#518EF8"/>
<path d="M19.5595 21.3748C17.4927 23.0168 14.8679 24 12.0098 24C7.41694 24 3.42375 21.4626 1.38672 17.7286L5.2951 14.5664C6.3136 17.2531 8.93575 19.1656 12.0098 19.1656C13.3312 19.1656 14.5691 18.8126 15.6313 18.1963L19.5595 21.3748Z" fill="#28B446"/>
<path d="M19.6989 2.77098L15.8126 5.96322C14.7191 5.27744 13.4265 4.88127 12.0417 4.88127C8.91474 4.88127 6.25774 6.90097 5.29541 9.71102L1.38737 6.5009H1.38672C3.38326 2.63872 7.40531 0 12.0417 0C14.9525 0 17.6213 1.04029 19.6989 2.77098Z" fill="#F14336"/>
</svg>
