<svg width="20" height="20" viewBox="0 0 20 20" fill="none" xmlns="http://www.w3.org/2000/svg">
<g clip-path="url(#clip0)">
<path d="M13.7603 11.7524L11.1112 9.76553V5.7183C11.1112 5.31136 10.7822 4.98242 10.3753 4.98242C9.96834 4.98242 9.6394 5.31136 9.6394 5.7183V10.1335C9.6394 10.3653 9.74832 10.5839 9.93376 10.7222L12.8772 12.9298C13.0096 13.0292 13.1642 13.077 13.318 13.077C13.5424 13.077 13.7632 12.9762 13.9074 12.7819C14.1518 12.4573 14.0856 11.996 13.7603 11.7524Z" fill="#454274"/>
<path d="M10.375 0.574219C5.13638 0.574219 0.875 4.8356 0.875 10.0742C0.875 15.3128 5.13638 19.5742 10.375 19.5742C15.6136 19.5742 19.875 15.3128 19.875 10.0742C19.875 4.8356 15.6136 0.574219 10.375 0.574219ZM10.375 18.1025C5.94878 18.1025 2.34672 14.5004 2.34672 10.0742C2.34672 5.648 5.94878 2.04594 10.375 2.04594C14.802 2.04594 18.4033 5.648 18.4033 10.0742C18.4033 14.5004 14.8012 18.1025 10.375 18.1025Z" fill="#454274"/>
</g>
<defs>
<clipPath id="clip0">
<rect width="19" height="19" fill="white" transform="translate(0.875 0.574219)"/>
</clipPath>
</defs>
</svg>
